PathFileType	4	(X/Y/Z)	C:/Users/beibeiliu/ov580/test_trc\sequence.9_training_dense_left.trc
DataRate	CameraRate	NumFrames	NumMarkers	Units	OrigDataRate	OrigDataStartFrame	OrigNumFrames
120	120	10	19	mm	120	176	200
Frame#	Time	ThumbCMC			ThumbMCP			ThumbIP			ThumbTip			IndexMCP			IndexPIP			IndexTip			MiddleMCP			MiddlePIP			MiddleTip			RingMCP			RingPIP			RingTip			PinkyMCP			PinkyPIP			PinkyTip			BackHand1			BackHand2			BackHand3	
		X0	Y0	Z0	X1	Y1	Z1	X2	Y2	Z2	X3	Y3	Z3	X4	Y4	Z4	X5	Y5	Z5	X6	Y6	Z6	X7	Y7	Z7	X8	Y8	Z8	X9	Y9	Z9	X10	Y10	Z10	X11	Y11	Z11	X12	Y12	Z12	X13	Y13	Z13	X14	Y14	Z14	X15	Y15	Z15	X16	Y16	Z16	X17	Y17	Z17	X18	Y18	Z18	
175	1.45833	-227.372	-32.9395	124.915	-223.565	-4.82453	103.316	-210.877	7.65583	83.1951	-189.158	12.2339	68.5636	-196.529	-41.2479	56.4248	-186.648	-18.347	39.2412	-178.725	11.0237	55.2755	-176.116	-58.3299	55.2372	-163.715	-50.3052	33.4012	-148.634	-32.0785	8.98082	-159.503	-59.1652	65.2849	-149.37	-51.8596	41.9273	-137.932	-45.431	23.0801	-139.647	-57.7126	83.9813	-129.319	-49.9372	69.5292	-114.126	-51.5685	50.9045	-180.751	-73.7981	114.516	-189.602	-77.4153	138.052	-214.102	-67.6789	117.222	
176	1.46667	-238.869	-40.5769	120.648	-237.013	-14.5244	101.977	-228.662	-1.89847	80.4366	-208.74	0.947581	63.0412	-214.784	-54.6353	54.8916	-202.035	-29.493	37.6264	-197.076	-3.73042	48.801	-194.272	-70.8002	52.6738	-186.719	-63.283	28.82	-173.849	-47.5943	0.908256	-175.768	-71.0322	61.8566	-165.343	-67.5211	39.1804	-158.395	-58.9311	11.8558	-159.886	-67.4688	76.5829	-143.309	-62.1166	59.3975	-131.883	-64.826	41.6956	-190.415	-83.2449	111.939	-197.229	-85.549	137.977	-225.927	-77.5223	114.981	
177	1.475	-260.264	-37.0483	122.549	-254.909	-11.4901	101.204	-248.164	-1.22514	80.0233	-226.252	-2.53368	58.9611	-242.867	-54.5146	49.5649	-229.254	-33.1411	33.2232	-221.837	-3.214	46.7409	-222.881	-72.2865	52.5109	-213.601	-66.1286	21.5849	-203.144	-53.8299	-1.17058	-206.409	-74.0888	55.2561	-195.418	-71.7772	34.0222	-189.001	-65.0318	5.05647	-182.515	-72.7662	75.4072	-171.253	-69.9579	54.0897	-159.759	-73.752	31.2344	-212.595	-84.7454	104.969	-215.102	-85.2822	138.429	-245.641	-77.4023	117.825	
178	1.48333	-276.252	-23.9434	122.602	-264.992	-4.4978	100.889	-259.342	11.1561	75.8482	-241.207	6.66135	56.8771	-270.379	-43.4674	52.3964	-252.131	-26.5026	31.3217	-237.937	3.44594	44.3199	-257.654	-64.4596	44.6162	-248.536	-59.1222	17.5388	-237.141	-49.8383	-6.76696	-239.032	-71.1019	52.6832	-227.326	-71.2981	26.2066	-225.508	-64.1628	0.923884	-213.283	-76.0568	64.8511	-207.426	-72.8908	47.4218	-199.889	-78.6702	23.258	-241.109	-80.8529	102.162	-247.209	-81.2774	130.678	-274.496	-65.652	116.279	
179	1.49167	-280.056	-5.85092	124.793	-265.535	13.8863	105.51	-253.785	21.2501	77.8987	-240.422	13.0778	60.4679	-281.874	-23.3825	47.5628	-266.148	-9.64533	29.8159	-238.136	4.98766	42.4781	-279.354	-45.8592	46.1188	-271.765	-44.3204	19.4661	-257.16	-39.0498	-7.30219	-260.45	-62.3732	50.8514	-256.796	-60.4144	25.5778	-249.749	-56.0073	-2.83169	-241.105	-72.6122	59.7823	-235.656	-71.5732	39.2587	-230.402	-78.6818	18.715	-267.837	-68.949	101.674	-270.721	-67.4021	130.89	-291.141	-45.6082	116.845	
180	1.5	-267.829	13.034	123.353	-246.407	28.0706	107.096	-231.672	34.4025	76.9889	-222.951	15.4109	58.2699	-276.777	0.545974	51.5913	-251.185	7.78955	31.249	-223.663	16.0114	44.4315	-282.129	-17.484	40.865	-273.659	-17.0905	13.6313	-258.865	-15.9141	-11.0644	-273.531	-41.1871	43.6934	-269.262	-38.4905	23.7281	-259.711	-38.3859	-4.95804	-260.826	-55.3488	55.6254	-254.838	-59.6594	37.2391	-253.522	-67.5935	15.8127	-284.602	-42.6236	96.1549	-286.851	-49.1776	122.925	-291.389	-18.8602	113.997	
181	1.50833	-244.889	20.7479	122.831	-216.672	29.1289	104.882	-202.602	30.6484	83.3267	-200.898	13.2138	58.4063	-255.049	23.6947	47.5684	-233.151	18.3667	31.6327	-201.403	10.5645	47.5067	-270.528	5.19259	42.043	-262.436	7.37306	16.8825	-247.132	0.735824	-13.4108	-272.322	-19.2009	45.9196	-266.705	-17.8516	16.6698	-259.769	-18.7101	-5.02536	-269.481	-42.0729	55.7877	-264.714	-41.109	31.3791	-269.034	-49.9959	9.92673	-284.914	-18.3248	94.1268	-288.092	-25.5301	124.236	-280.806	6.19045	108.889	
182	1.51667	-220.469	16.6929	127.01	-191.199	13.089	107.58	-175.82	9.04412	83.2318	-178.524	-3.31522	61.2985	-225.356	29.5482	51.9873	-205.599	16.6016	32.1779	-185.129	-9.62887	46.4488	-246.864	20.9385	42.1527	-238.774	16.7982	11.8018	-228.976	8.63066	-9.75226	-257.136	3.22899	41.1958	-254.943	-1.2668	16.3382	-249.96	-5.66271	-11.3278	-268.737	-21.7697	50.282	-268.951	-29.2619	32.6695	-272.51	-31.4363	6.91016	-273.223	-0.286308	93.1548	-278.882	-2.00094	123.395	-256.684	21.9266	112.358	
183	1.525	-200.353	9.17902	125.053	-173.466	-6.25842	109.668	-160.645	-15.3296	86.7799	-171.655	-26.9769	63.2085	-197.419	19.6388	49.5752	-177.819	-2.39519	33.1826	-173.167	-29.4678	44.3772	-223.125	19.5668	43.1053	-213.439	13.5702	11.0618	-204.393	-0.190509	-12.9018	-239.662	7.45732	41.9846	-239.043	2.34627	14.5988	-232.052	-2.07528	-8.55968	-259.055	-9.95483	51.4871	-256.933	-15.1636	28.9933	-264.421	-14.5118	8.82556	-251.733	14.5382	94.2561	-263.707	13.6011	119.881	-231.801	27.0669	112.753	
184	1.53333	-181.862	1.33128	123.245	-162.725	-21.8098	112.953	-153.881	-35.8924	91.5716	-158.909	-46.6431	71.2247	-176.607	4.94532	51.2333	-164.655	-17.9091	35.6061	-168.264	-48.5896	45.444	-200.284	8.47536	36.8233	-190.254	0.986534	14.7276	-183.61	-17.7199	-9.12495	-221.971	1.86853	37.152	-217.849	-5.04086	15.2287	-213.894	-14.6817	-11.6415	-243.252	-9.60014	47.5559	-242.992	-16.5529	27.5134	-252.062	-20.8527	7.1451	-234.041	16.4777	88.4016	-242.293	18.6725	117.271	-209.041	25.4843	106.782	
